<svg width="36" height="36" viewBox="0 0 36 36" fill="none" xmlns="http://www.w3.org/2000/svg">
<g clip-path="url(#clip0_10985_11428)">
<path d="M15.928 15.9161V9.75113C15.928 9.17378 16.553 8.81293 17.053 9.10161L28.862 15.9196V9.86218C28.862 9.44796 29.1978 9.11218 29.612 9.11218H30.751C31.1652 9.11218 31.501 9.44796 31.501 9.86218V25.5154C31.501 25.9296 31.1652 26.2654 30.751 26.2654H29.612C29.1978 26.2654 28.862 25.9296 28.862 25.5154V19.4573L17.053 26.2752C16.553 26.5639 15.928 26.2031 15.928 25.6257V19.4608L4.125 26.2752C3.625 26.5639 3 26.203 3 25.6257L3 9.75112C3 9.17377 3.625 8.81292 4.125 9.1016L15.928 15.9161Z" fill="white"/>
</g>
<defs>
<clipPath id="clip0_10985_11428">
<rect width="36" height="36" fill="white" transform="translate(36 36) rotate(-180)"/>
</clipPath>
</defs>
</svg>
