<svg width="36" height="36" viewBox="0 0 36 36" fill="none" xmlns="http://www.w3.org/2000/svg">
<g clip-path="url(#clip0_10985_11424)">
<path d="M20.072 15.9161V9.75113C20.072 9.17378 19.447 8.81293 18.947 9.10161L7.13796 15.9196V9.86218C7.13796 9.44796 6.80217 9.11218 6.38796 9.11218H5.24901C4.83479 9.11218 4.49901 9.44796 4.49901 9.86218V25.5154C4.49901 25.9296 4.83479 26.2654 5.24901 26.2654H6.38796C6.80217 26.2654 7.13796 25.9296 7.13796 25.5154V19.4573L18.947 26.2752C19.447 26.5639 20.072 26.2031 20.072 25.6257V19.4608L31.875 26.2752C32.375 26.5639 33 26.203 33 25.6257L33 9.75112C33 9.17377 32.375 8.81292 31.875 9.1016L20.072 15.9161Z" fill="white"/>
</g>
<defs>
<clipPath id="clip0_10985_11424">
<rect width="36" height="36" fill="white" transform="matrix(1 -8.74228e-08 -8.74228e-08 -1 3.14722e-06 36)"/>
</clipPath>
</defs>
</svg>
